<?xml version="1.0" encoding="UTF-8"?>
<svg id="Content_Creator" data-name="Content Creator" xmlns="http://www.w3.org/2000/svg" viewBox="0 0 3000 3000">
  <defs>
    <style>
      .cls-1 {
        fill: #111;
      }

      .cls-2 {
        fill: #f2f1f2;
      }

      .cls-3 {
        fill: #dc4438;
      }

      .cls-4 {
        fill: #d8d7d8;
      }

      .cls-5 {
        fill: #b3b2b3;
      }

      .cls-6 {
        fill: #efcebd;
      }
    </style>
  </defs>
  <rect class="cls-2" x="532.11" y="274.1" width="1049.35" height="938.29" rx="153.26" ry="153.26"/>
  <path class="cls-3" d="M919.43,639.4c0-36.51,39.52-59.32,71.13-41.07,8.66,5,171.21,98.85,179.87,103.85,31.61,18.25,31.61,63.88,0,82.14-8.66,5-171.21,98.85-179.87,103.85-31.61,18.25-71.13-4.56-71.13-41.07v-207.69Z"/>
  <rect class="cls-4" x="942.61" y="127.66" width="896.18" height="338.34" rx="83.73" ry="83.73"/>
  <path class="cls-4" d="M1694.3,421.6s-18.86,87.44,47.84,143.68c5.69,4.8,1.15,14.02-6.06,12.15-45.63-11.79-125.78-47.71-147.05-155.83h105.27Z"/>
  <g>
    <path class="cls-2" d="M1128.77,393.75h-41.1v-159.63h-52.64v-34.21h146.37v34.21h-52.63v159.63Z"/>
    <g>
      <path class="cls-2" d="M1740,237.2h-455.79c-8.57,0-8.34-13.44,0-13.44h455.79c8.57,0,8.34,13.44,0,13.44Z"/>
      <path class="cls-2" d="M1740,276.34h-455.79c-8.57,0-8.34-13.44,0-13.44h455.79c8.57,0,8.34,13.44,0,13.44Z"/>
      <path class="cls-2" d="M1740,315.48h-455.79c-8.57,0-8.34-13.44,0-13.44h455.79c8.57,0,8.34,13.44,0,13.44Z"/>
      <path class="cls-2" d="M1740,354.61h-455.79c-8.57,0-8.34-13.44,0-13.44h455.79c8.57,0,8.34,13.44,0,13.44Z"/>
      <path class="cls-2" d="M1740,393.75h-455.79c-8.57,0-8.34-13.44,0-13.44h455.79c8.57,0,8.34,13.44,0,13.44Z"/>
    </g>
  </g>
  <g>
    <rect class="cls-4" x="453.34" y="987.5" width="603.44" height="603.44" rx="120.42" ry="120.42"/>
    <path class="cls-2" d="M571.03,1590.94h368.06c65,0,117.69-52.69,117.69-117.69v-202.87c-100.4-23.49-158.86,100.87-196.92,76.24-39.71-25.7-79.42-162.35-177.97-134.22-58.07,16.57-157.05,93.48-228.56,153.86v107c0,65,52.69,117.69,117.69,117.69Z"/>
    <circle class="cls-2" cx="894.95" cy="1143.43" r="68.96"/>
  </g>
  <path class="cls-6" d="M1717.86,909.98c-52.44,64.86-95.89,121.02-129.59,165.51-64.32-108.33-128.65-216.66-192.97-324.99-25.54,16.27-51.08,32.54-76.62,48.81,11.21,43.37,29.78,107.16,59.59,181.46,67.29,167.72,106.88,266.41,179.73,282.17,86.09,18.62,178.3-87.35,271.48-194.43,50.23-57.73,85.42-111.22,107.84-148.56-13.72-52.98-27.43-105.97-41.15-158.95-86.58,36.67-129.96,89.19-178.31,148.98Z"/>
  <path class="cls-1" d="M2347.85,746.16c-113.51-34.6-109.1-182.96-139.37-261.79-30.27-78.83-85.76-98.37-85.76-98.37l-179.43,47.92s-213.44,447.74,32.47,519.58c245.92,71.84,485.6-172.74,372.09-207.34Z"/>
  <path class="cls-6" d="M1429.68,813.5s-4.8-52.82-17.45-73.44c-12.65-20.62-20.51-47.92-28.77-45.78-8.26,2.14-15.26,34.09-2.54,59.69,0,0-55.8-16.59-69.02-27.27-13.22-10.68-25.57-44.91-36.86-41.14-11.29,3.77,2.97,46.22,10.65,60.95-29.72-76.95-51.83-61.25-25.13,14.36-27.6-66.81-50.76-61.39-22.14,16.86,0,0-16.83-41.68-28.36-35.72-11.53,5.96,5.51,59.3,28.14,77.12,22.64,17.82,120.03,40.58,120.03,40.58l71.44-46.2Z"/>
  <rect class="cls-6" x="1984.17" y="568.15" width="132.34" height="254.07" transform="translate(100.64 -246.02) rotate(7.04)"/>
  <circle class="cls-6" cx="2050.76" cy="502.82" r="109.24"/>
  <path class="cls-6" d="M1941.55,505.88c-.91,12.73-1.94,30.45-2.41,51.65-1.34,60.56,5.3,74.52,9.96,82.48,30.04,51.35,85.77,47.14,134.39,12.28,38.51-27.62,57.62-73.58,72.15-118.86-71.36-9.18-142.72-18.36-214.08-27.55Z"/>
  <circle class="cls-1" cx="2051.03" cy="553.73" r="7.75"/>
  <path class="cls-1" d="M2081.03,535.64c-1.19,2.35-9.35-3.23-26.14-3.12-8.2.05-14.45,1.44-16.69-2-1.24-1.9-.87-4.68.17-6.52,3.43-6.06,16.27-5.76,24.96-2.89,10.47,3.46,18.98,11.99,17.69,14.53Z"/>
  <circle class="cls-1" cx="1968" cy="543.48" r="7.75"/>
  <path class="cls-1" d="M1943.31,518.64c.58,2.57,9.86-.86,26.12,3.33,7.94,2.05,13.66,4.91,16.67,2.12,1.66-1.54,1.98-4.33,1.42-6.37-1.85-6.71-14.38-9.54-23.51-8.87-11,.81-21.33,7.01-20.7,9.79Z"/>
  <path class="cls-1" d="M2009.69,587.3c-.29,0-.02.02-9.67-1.17-6.68-.82-10.4-7.93-7.58-13.89,8.41-17.78,8.33-36.89,8.33-37.08-.03-3.94,5.96-4.08,6-.06,0,.83.11,20.64-8.91,39.71-1.11,2.33.33,5.05,2.89,5.37l9.3,1.15c3.71.46,3.37,5.98-.37,5.98Z"/>
  <path class="cls-1" d="M2016.89,682.38c-18.8,0-31.62-5.87-31.85-5.98-3.56-1.68-1.06-7.1,2.56-5.43,1.68.79,41.7,18.94,84.06-14.4,3.12-2.45,6.83,2.26,3.71,4.72-21.13,16.63-42.08,21.09-58.48,21.09Z"/>
  <path class="cls-1" d="M2006.99,611.92c-.73,4.19,10.59,13.07,20.5,10.41,11.2-3.02,15.75-19.51,12.61-22.39-1.49-1.37-4.1.91-16.43,5.32-12.63,4.52-16.29,4.43-16.68,6.66Z"/>
  <path class="cls-2" d="M2045.04,749.8c-42.51-5.36-160.62-14.92-223.62,57.22-27.64,31.65-34.98,67.92-45.38,203.72-5.42,70.71-11.23,162.74-14.77,271.23,126.67,17.9,253.33,35.81,380,53.71,23.93-287.96,140.39-381.56,111.45-467.28-13.71-40.6-59.41-89.91-207.68-118.61Z"/>
  <path class="cls-6" d="M1763.05,1209.78c-105.08,517.23-89.76,1070.27,67.73,1607.74h111.24c4.03-228.97,7.2-402.15,10.88-504.83,3.55-99.1-5.56-190.51-31.64-286.18,69.77-237.13,93.45-487.25,69.21-735.6-75.81-27.04-151.61-54.08-227.42-81.13Z"/>
  <path class="cls-6" d="M1885.66,1285.35c7.33,121.29,16.42,251.07,27.78,388.53,24.53,296.89,36.93,396.7,163.55,600.23,71.72,115.29,189.25,280.12,375.24,459.81,27.44-25.46,54.88-50.91,82.32-76.37-102.44-186.31-151.96-302.6-178.22-375.87-16.08-44.87-48.43-170.76-179.96-272.31,25.08-135.06,61.61-406.86,36.65-539.64-16.06-85.46-46.75-150.91-69.94-192.41-85.8,2.68-171.61,5.36-257.41,8.04Z"/>
  <path class="cls-1" d="M1942.78,2774.42c7.28,48.68,14.57,97.37,21.85,146.05,1.4,9.37-5.85,17.8-15.32,17.81l-328.12.37c-9.95.01-18.02-8.85-16.22-18.63,6.09-33.1,48.46-35.03,76.23-38.88,35.68-4.94,84.25-25.95,139.9-97.29,40.69,6.57,81.94,3.83,121.67-9.43Z"/>
  <path class="cls-1" d="M2522.55,2638.61c38.36,35.66,76.73,71.32,115.09,106.98,3.26,3.03,4.02,7.87,1.79,11.73-54.62,94.4-145.67,164.17-257.41,188.66-7.39,1.62-14.8-2.98-16.55-10.33-6.77-28.4,17.84-38.93,37.94-59.4,28.91-29.44,41.03-67.63,43.64-94.63,1.23-12.78,1.39-33.92-7.7-60.22,27.73-27.59,55.47-55.19,83.2-82.78Z"/>
  <path class="cls-2" d="M2257.66,1909.25s81.93-445.98-103.6-670.89c-127.74-16.01-255.49-32.01-383.23-48.02-110.29,282.65-161.65,630.98-167.92,930.73-.34,16.48,9.99,31.35,25.65,36.46,237.3,77.5,482.75,48.98,690.55-61.06,13.47-7.13,18.89-23.6,12.17-37.28l-73.62-149.95Z"/>
  <path class="cls-6" d="M2204.94,808.49c91.74,65.37,127.92,161.23,147.44,273.82,26.16,150.95,51.14,295.06-14.62,347.35-79.01,62.83-279.1-14.78-482.42-203.06-8.48.96-20.41,1.95-34.68,1.89-40.2-.16-65.92-.26-85.13-16.4-24.26-20.38-34.72-63.44-19.76-84.31,18.63-25.99,82.16-25.18,152.5,18.09,117.3,42.57,234.59,85.13,351.89,127.7-20.5-99.74-40.99-199.49-61.49-299.23,15.43-55.29,30.85-110.58,46.28-165.87Z"/>
  <path class="cls-2" d="M2187.23,797.19s78.79,39.39,116.16,107.49c28.88,52.65,49.29,135.26,57.06,170.04,1.98,8.85-3.86,17.53-12.8,19.03l-175.75,29.44-49.19-135.27,64.51-190.73Z"/>
  <path class="cls-2" d="M1905.31,756.73c-84.39,21.04-152.05,73.77-196.91,145.11,35.16,32.38,70.31,64.77,105.47,97.15,30.48-80.75,60.96-161.51,91.44-242.26Z"/>
  <g>
    <path class="cls-1" d="M2042.59,1172.24h-454.85c-8.62,0-15.86-6.49-16.8-15.05l-35.67-324.54c-1.1-10,6.73-18.75,16.8-18.75h454.85c8.62,0,15.86,6.49,16.8,15.05l35.67,324.54c1.1,10-6.73,18.75-16.8,18.75Z"/>
    <rect class="cls-1" x="1572.6" y="1153.61" width="655.14" height="36.74" rx="17.41" ry="17.41"/>
    <circle class="cls-2" cx="1782.21" cy="994.23" r="40.72"/>
  </g>
  <path class="cls-6" d="M2108.39,764.98s-62.01,43.69-98.93,35.17c-36.92-8.51-32.11-53.81-32.11-53.81l32.11-33.21,53.66,9.46,45.27,42.39Z"/>
  <path class="cls-1" d="M2158.33,532.91c-93.47,28.31-135.99-116.33-135.89-116.33,0,0-4.97,80.41-73.31,61.84l-7.58,27.46c-5.43-12.18-13.47-34.73-11.5-63.13,1.01-14.59,2.2-31.56,13.22-44.5,16.62-19.51,50.1-23.44,84.06-12.42,55.73-23.87,116.68-2.81,140.15,41.16,16.97,31.81,12.86,72.87-9.16,105.93Z"/>
  <path class="cls-6" d="M2121.88,541.38c26.07-28.85,63.68-.3,45.52,34.88-9.34,18.09-37.51,26.98-69.55,20.49,8.01-18.46,16.02-36.91,24.03-55.37Z"/>
  <path class="cls-1" d="M2127.95,579.79c-3.95-.39-3.36-6.38.59-5.97,2.58.25,5.12-.59,6.95-2.33,4.83-4.59,1.12-10.66-4.72-11.53-2.47-.37-3.42-3.41-1.64-5.13,6.75-6.5,16.53-9.52,26.2-7.37,3.88.86,2.58,6.71-1.3,5.86-5.58-1.25-11.61-.34-16.73,2.76,12.84,7.86,4.68,25.11-9.35,23.72Z"/>
  <path class="cls-1" d="M2180.36,1113.88l38.78-140.94c1.05-3.83,6.84-2.24,5.78,1.59l-38.78,140.94c-1.05,3.82-6.83,2.23-5.78-1.59Z"/>
  <path class="cls-1" d="M2292.1,1343.78c-18.66-45.52-72.51-67.18-73.05-67.4-3.69-1.45-1.5-7.03,2.2-5.58,2.31.91,56.75,22.78,76.4,70.71,1.51,3.67-4.05,5.95-5.55,2.27Z"/>
  <path class="cls-2" d="M2462.52,2763.24c-5.1,0-15-2.22-12.46-6.84.79-1.45,2.62-1.97,4.06-1.2.57.3,13.49,7.02,22.32-5.92,2.24-3.27,7.2.1,4.96,3.38-5.52,8.09-12.64,10.58-18.88,10.58Z"/>
  <path class="cls-2" d="M2462.52,2793.54c-5.1,0-15-2.22-12.46-6.84.8-1.46,2.62-1.98,4.07-1.2.65.34,13.51,6.98,22.32-5.92,2.23-3.28,7.2.1,4.96,3.38-5.52,8.09-12.64,10.58-18.88,10.58Z"/>
  <path class="cls-2" d="M1812.08,2840.56c-17.82,0-22.3-15.2-22.34-15.37-1.06-3.82,4.68-5.44,5.77-1.63.17.59,4.34,13.93,22.53,10.38,3.89-.77,5.04,5.13,1.15,5.89-2.58.5-4.94.73-7.1.73Z"/>
  <path class="cls-2" d="M1793.04,2866.13c-17.82,0-22.29-15.2-22.34-15.37-1.06-3.82,4.69-5.44,5.77-1.63.17.59,4.31,13.95,22.53,10.38,3.85-.79,5.08,5.12,1.15,5.89-2.58.5-4.94.73-7.11.73Z"/>
  <path class="cls-1" d="M1256.71,796.61c-10.46,0-22.15-18.75-26.19-28.97-1.46-3.69,4.11-5.89,5.58-2.21,2.5,6.3,11.19,23.1,21.23,25.25,3.5.75,2.96,5.93-.62,5.93Z"/>
  <path class="cls-1" d="M1281.09,777.77c-15.65,0-27.85-25.82-29.19-28.77-1.64-3.6,3.8-6.1,5.46-2.48,3.21,7.03,13.71,25.25,23.73,25.25,4.4.37,3.81,6,0,6Z"/>
  <path class="cls-1" d="M1301.02,756.36c-5.99,0-21.74-12.1-27.3-31.76-1.08-3.81,4.69-5.45,5.77-1.64.06.22,6.49,22.17,22.48,27.55,3.21,1.08,2.43,5.84-.96,5.84Z"/>
  <path class="cls-1" d="M1363.13,795.28c-7.68-27.65,15.88-43.65,16.12-43.81,3.3-2.19,6.61,2.79,3.32,5-.83.55-20.16,13.82-13.66,37.21,1.06,3.83-4.72,5.43-5.78,1.61Z"/>
  <circle class="cls-4" cx="482.63" cy="753.73" r="123.33"/>
  <path class="cls-4" d="M1223.84,1244.86c1.43,36.34-13.24,70.56-42.13,93.06-2.91,2.27-1.6,6.94,2.08,7.2,10.74.75,24.71-.06,39.35-5.98,51.73-20.94,59.89-84.86,60.2-87.66l-59.51-6.62Z"/>
  <circle class="cls-4" cx="1267.9" cy="1186.59" r="114.75"/>
  <path class="cls-4" d="M710.99,1710.4c1.43,36.34-13.24,70.56-42.13,93.06-2.91,2.27-1.6,6.94,2.08,7.2,10.74.75,24.71-.06,39.35-5.98,51.73-20.94,59.89-84.86,60.2-87.66l-59.51-6.62Z"/>
  <circle class="cls-4" cx="752.6" cy="1657.38" r="114.75"/>
  <path class="cls-4" d="M746.11,240.31c-7.7,37.01,1.47,74.62,27.23,102.64,2.59,2.82.45,7.39-3.37,7.02-11.14-1.08-25.33-4.3-39.32-12.88-49.45-30.35-46.85-97.28-46.69-100.2l62.15,3.42Z"/>
  <path class="cls-4" d="M530.53,823.25c-.85,34.87,13.72,67.48,41.74,88.63,2.82,2.13,1.63,6.63-1.89,6.93-10.29.87-23.7.3-37.82-5.17-49.92-19.33-58.66-80.51-59-83.19l56.97-7.21Z"/>
  <circle class="cls-4" cx="710.93" cy="173.01" r="119.29"/>
  <g>
    <circle class="cls-2" cx="1201.08" cy="1186.59" r="18.21"/>
    <circle class="cls-2" cx="1267.9" cy="1186.59" r="18.21"/>
    <circle class="cls-2" cx="1334.73" cy="1186.59" r="18.21"/>
  </g>
  <path class="cls-2" d="M663.18,135.29c26.58-13.24,36.24-27.8,40.04-38.95,3.86-11.35,6.6-33.15,21.83-28.56,12.08,3.63,16.03,31.86,4.48,55.53,0,0,43.67-4.2,55.74,4.12,12.06,8.31-12.4,24.84-12.4,24.84,0,0,37.13,5.78,8.56,24.44,0,0,26.43,12.89-4.44,28.77,0,0,20.35,6.76,4.41,22.92-15.94,16.17-125.48,8.04-125.48,8.04-11.06-33.36-8.45-69.7,7.28-101.14Z"/>
  <path class="cls-5" d="M663.18,135.29c-5.21.45-23.36,2.75-26.84,4.63-6.75,3.65-7.59,15.8-4.97,46.45,3.94,46.04,8.56,50.69,12.42,52.93,2.79,1.61,11.34,5.54,28.23-1.92-11.27-32.92-14.23-67.72-8.84-102.09Z"/>
  <circle class="cls-2" cx="645.6" cy="151.84" r="8.76"/>
  <path class="cls-4" d="M721.95,216.06c.46-6.05,7.07-9.61,15.54-11.67-19.06-4.81-18.55-15.63-5.63-21.59-7.59-1.21-13.79-3.76-16.39-8.5-4.85-8.85,6.61-14.35,16.07-17.42-6.81-.71-12.76-2.2-16.25-4.95-4.9-3.86-4.86-10.06-1.03-14.68,9.03-10.87,38.99-13.85,42.37-14.16,3.92-.43,4.53,5.62.54,5.98-27.84,2.51-45.49,12.37-38.17,18.15,9.32,7.35,44.85,2.89,53.57,2.07,3.73-.52,4.66,5.4.7,5.96-5.95.84-57.49,7.17-52.54,16.18,2.91,5.3,15.1,6.71,28.7,6.23,11.58-2.24,23.86-3.13,29.9-3.45,3.67-.24,4.4,5.23.73,5.94-2.71.52-15.54,2.88-29.17,3.46-7.16,1.36-26.51,5.75-21.35,10.9,7.33,7.35,42.28,7.22,45.46,7.37,3.85.18,3.76,5.95-.1,6-1.19.02-5.07.04-10.22-.16-53.45.68-46.49,19.4,7.23,18.25,4.21.22,3.88,5.91.13,6-15.07.33-51.22-.91-50.09-15.88Z"/>
  <path class="cls-4" d="M696.01,151.45c-3.99-.31-3.46-6.37.46-5.98,11.87.89,26.09-16.85,30.52-23.78,2.15-3.35,7.19-.11,5.06,3.23-7.24,11.32-22.19,27.6-36.04,26.53Z"/>
  <path class="cls-2" d="M536.56,781.17l-44.23,51.75c-1.56,1.82-4.3,2.04-6.13.48-56.93-48.64-61.37-50.84-70.5-65.36-5.31-8.43-11.37-17.71-11.9-30.93-1.92-48.66,59.04-59.97,79.24-17.56,14.05-49.65,75.35-35.57,74.71,5.57-.31,19.87-7.28,39.75-21.2,56.04Z"/>
  <g>
    <path class="cls-2" d="M684.81,1647.77c42.44-14.9,84.89-29.79,127.33-44.69,3.65-1.28,7.05,2.45,5.44,5.96-19.02,41.5-38.03,83-57.05,124.5-1.77,3.86-7.45,3.2-8.28-.96-11.02-54.97-9.86-53.32-12.95-54.56l-54.68-22.05c-3.75-1.51-3.63-6.86.19-8.2Z"/>
    <path class="cls-5" d="M739.3,1681.02c-2.69,0-4.02-3.3-2.08-5.16l75.14-72.08c2.87-2.74,7.02,1.58,4.15,4.33-76.64,73.52-75.34,72.91-77.22,72.91Z"/>
  </g>
</svg>