<?xml version="1.0" encoding="UTF-8"?>
<svg id="Growth_Marketing" data-name="Growth Marketing" xmlns="http://www.w3.org/2000/svg" viewBox="0 0 3000 3000">
  <defs>
    <style>
      .cls-1 {
        fill: #111;
      }

      .cls-2 {
        fill: #f2f1f2;
      }

      .cls-3 {
        fill: #d8d7d8;
      }

      .cls-4 {
        fill: #b3b2b3;
      }

      .cls-5 {
        fill: #efcebd;
      }

      .cls-6 {
        fill: #109d59;
      }
    </style>
  </defs>
  <rect class="cls-3" x="1336.62" y="2324.59" width="269.75" height="546.55" rx="47.38" ry="47.38"/>
  <rect class="cls-3" x="1760.04" y="1874.44" width="269.75" height="996.69" rx="47.38" ry="47.38"/>
  <rect class="cls-3" x="2183.46" y="1999.19" width="269.75" height="871.95" rx="47.38" ry="47.38"/>
  <rect class="cls-3" x="2606.88" y="1888.21" width="269.75" height="982.92" rx="47.38" ry="47.38"/>
  <g>
    <path class="cls-1" d="M1910.76,1208.93c-2.72,0-4.06-3.4-1.99-5.24l239.14-212.95c15.11-13.46,36.46-17.89,55.66-11.53l156.13,51.57c17.72,5.85,37.2,1.55,50.79-11.24l151.04-141.96c8.08-7.59,18.12-12.63,29.03-14.56l261.15-46.27c3.89-.69,4.96,5.22,1.04,5.91l-261.15,46.27c-9.76,1.73-18.74,6.23-25.96,13.03l-151.04,141.96c-15.21,14.29-36.95,19.11-56.79,12.56l-156.13-51.57c-17.18-5.68-36.26-1.72-49.79,10.31-240.63,214.27-239.33,213.71-241.14,213.71Z"/>
    <circle class="cls-1" cx="1910.76" cy="1207.7" r="20.91"/>
    <circle class="cls-1" cx="2177.6" cy="975.81" r="20.91"/>
    <circle class="cls-1" cx="2387.32" cy="1033.73" r="20.91"/>
    <circle class="cls-1" cx="2575.62" cy="869.19" r="20.91"/>
    <circle class="cls-1" cx="2852.25" cy="815.3" r="20.91"/>
  </g>
  <g>
    <path class="cls-6" d="M1632.86,1863.43l-94.92-108.01c-11.45-13.02-9.64-32.42,4.03-43.33l564.06-450.05c14.72-11.74,36.87-8.73,47.55,6.47l115.28,164.1c10.43,14.85,31.91,18.13,46.69,7.13l362.39-269.67c14.05-10.46,34.34-8.08,45.31,5.31l91,111.03c10.97,13.39,8.48,32.72-5.57,43.17l-542.5,403.7c-14.78,11-36.26,7.72-46.69-7.13l-110.86-157.81c-10.68-15.2-32.83-18.22-47.55-6.47l-382.73,305.37c-13.67,10.91-34.03,9.19-45.47-3.84Z"/>
    <path class="cls-6" d="M2589.32,1163.1c-7.73-9.73.14-23.6,12.91-22.78,9.98.64,250.49,16.13,260.47,16.77,9.05.58,15.47,8.66,13.6,17.12-2.15,9.77-51.56,233.67-53.72,243.44-2.63,11.94-18.79,15.39-26.51,5.66-6.22-7.83-200.53-252.38-206.75-260.21Z"/>
  </g>
  <path class="cls-1" d="M1281.1,517.62c-21.09-18.54-42.18-37.09-63.27-55.63-53.18-37.12-96.34-43.72-127.4-41.58-189.46,13.1-378.43,382.89-260.19,539.29,115.13,152.3,480.21,47.64,525.83-31.39,4.83-8.37,7.03-15.3,7.03-15.3,7.41-35.08-39.95-75.13-69.73-177.39-25.73-88.35-21.26-164.64-12.27-218.01Z"/>
  <rect class="cls-5" x="948.82" y="714.53" width="198.81" height="381.67" transform="translate(1962.72 1945.62) rotate(-172.14)"/>
  <circle class="cls-5" cx="1116.57" cy="624.16" r="164.11"/>
  <path class="cls-5" d="M1277.76,655.05c-1.72,19.1-4.47,45.62-8.88,77.17-12.61,90.11-25.83,109.21-34.65,119.89-56.92,68.89-138.55,49.22-202.22-14.2-50.44-50.25-67.69-123-78.32-193.65,108.03,3.6,216.05,7.19,324.08,10.79Z"/>
  <circle class="cls-1" cx="1103.89" cy="699.59" r="11.65"/>
  <path class="cls-1" d="M1063.78,665.54c1.2,3.78,14.64-2.54,39.52,1.68,12.15,2.06,21.08,5.62,25.23,1.06,2.29-2.52,2.42-6.73,1.31-9.72-3.62-9.81-22.74-12.46-36.32-10.3-16.36,2.6-31.03,13.2-29.74,17.28Z"/>
  <circle class="cls-1" cx="1229.48" cy="704.41" r="11.65"/>
  <path class="cls-1" d="M1272.08,673.54c-1.48,3.67-14.41-3.65-39.53-1.36-12.27,1.12-21.45,3.99-25.23-.88-2.09-2.68-1.89-6.89-.57-9.79,4.37-9.51,23.63-10.68,37-7.48,16.12,3.85,29.93,15.54,28.33,19.51Z"/>
  <path class="cls-1" d="M1172.29,758.44c-.17,0-9.72-.36-14.58-.54-3.89-.15-3.78-6,.12-6,.04,0,9.45.36,14.18.54,4.73.24,8.48-4.36,7.08-9.18-8.69-30.13-3.81-59.13-3.6-60.36.68-3.96,6.59-2.84,5.91,1.03-.05.29-4.83,28.91,3.46,57.67,2.44,8.48-3.83,16.85-12.56,16.85Z"/>
  <path class="cls-1" d="M1042.95,852.15c-2.64-2.96,1.86-6.96,4.49-3.98,27.87,31.35,65.37,46.07,102.34,44.73,4.08,0,4.07,5.86.2,6-41.56,1.27-79.5-15.78-107.03-46.75Z"/>
  <path class="cls-1" d="M1105.26,763.76c-5.83,4.16-2.8,29.14,12.95,36.81,14.6,7.1,34.78-3.27,35.02-10.39.06-1.65-.95-3.68-23.26-15.85-21.43-11.69-23.47-11.44-24.71-10.56Z"/>
  <path class="cls-5" d="M1844.58,1049.34l-136.46-8.18-112.78,547.98c-52.35-121.88-104.52-237.26-156.11-347.09-17.66-37.58-41.88-87.91-93.03-136.48-48.16-45.73-99.32-70.09-134.44-83.32-9.6,105.59-19.2,211.17-28.8,316.76,20.81,67.13,161.46,504.44,424.41,546.27,33.56,5.34,51.83,1.49,56.77.35,221.95-50.94,186.35-735.69,180.44-836.29Z"/>
  <path class="cls-2" d="M1203.48,1737.33c-188.77,21.34-379.61,10.03-564.53-33.49-118.48,179.35-141.08,342.91-151.44,510.17-15.24,246.18-16.55,465.22-13.84,631.83.23,14.08,11.72,25.32,25.81,25.3l375.06-.6c12.87-.02,23.18-10.68,22.76-23.55-6.09-187.34-12.18-374.67-18.27-562,29.08,188.1,58.15,376.2,87.23,564.29,1.93,12.51,12.74,21.72,25.4,21.65l398.46-2.35c10.68-.06,18.71-9.76,16.79-20.26l-203.44-1110.98Z"/>
  <path class="cls-5" d="M889.23,402.17c-36.59-19.42-73.17-38.84-109.76-58.26-66.72,34.11-158.44,84.92-261.72,155.4-229.31,156.48-409.82,279.66-393.32,402.24,14.57,108.31,177.73,177.21,391.25,267.39,98.49,41.6,183.9,67.06,243.8,82.58,42.99-94.58,85.99-189.16,128.98-283.74-143.26-39.77-286.53-79.54-429.79-119.31,143.52-148.77,287.05-297.54,430.57-446.3Z"/>
  <path class="cls-1" d="M1129.86,988.59c140.36,26.96,212.12,91.73,242.91,125.16,52.8,57.32,119.89,179.03,154.37,261.31,4.33,10.33.08,22.24-9.85,27.43-86.46,45.16-172.92,90.32-259.38,135.48l-34.41-263.2-93.65-286.18Z"/>
  <path class="cls-1" d="M968.94,963.08c-127.74-31.03-255.49-62.06-383.24-93.09-13.48-3.27-27.22,4.31-31.64,17.46l-83.28,248.19c-4.55,13.55,2.66,28.24,16.16,32.94,94.21,32.81,188.42,65.61,282.63,98.42,66.46-101.31,132.91-202.62,199.37-303.92Z"/>
  <g>
    <g>
      <path class="cls-4" d="M1913.85,1134.74l-93.81,33.72c-10.36,3.72-21.8-1.1-26.44-11.09-42.75-92.07-78.28-189.83-104.98-292.02-2.78-10.65,2.98-21.64,13.33-25.36l68.15-24.5c11.59-4.17,24.22,2.4,27.59,14.25,27.8,97.75,70.69,190.29,126.58,273.27,7.72,11.45,2.57,27.06-10.43,31.73Z"/>
      <rect class="cls-4" x="1563.75" y="704.88" width="211.39" height="197.88" rx="56.68" ry="56.68" transform="translate(-156.99 491.89) rotate(-16.02)"/>
      <path class="cls-4" d="M2366.35,894.74c-220.39-43.26-439.76-38.21-650.58,11.91-14.55,3.46-29.71-6.62-34.38-22.91l-43.49-151.48c-5.08-17.7,3.1-35.7,18.5-40.91,210.64-71.27,397.27-185.73,555.59-334.29l154.36,537.68Z"/>
      <ellipse class="cls-2" cx="2286.72" cy="626.6" rx="53.44" ry="279.7" transform="translate(-84.12 655.34) rotate(-16.02)"/>
      <path class="cls-4" d="M2272.58,698.97l-70.89,32.63c-14.91,6.87-32.44-1.17-36.97-16.95l-28.13-97.97c-4.53-15.78,6.06-31.89,22.35-33.98l77.4-9.94c13.13-1.69,25.52,6.46,29.18,19.19l21.61,75.28c3.65,12.72-2.53,26.21-14.55,31.74Z"/>
    </g>
    <path class="cls-1" d="M1678.49,884.52l-44.94-165.14c-1.04-3.83,4.75-5.4,5.79-1.57l44.94,165.14c1.04,3.83-4.75,5.4-5.79,1.57Z"/>
    <path class="cls-1" d="M2247.75,704.64c-19.27-42.31-32.78-120.48-33.35-123.79-.66-3.9,5.23-4.94,5.92-1.01.13.8,13.95,80.71,32.89,122.31,1.65,3.62-3.83,6.08-5.46,2.48Z"/>
  </g>
  <path class="cls-1" d="M584.59,1792.77c-10.6-8.52-14.65-22.79-9.94-35.56,27.04-73.42,58.55-179.54,71.23-309.55,22.58-231.57-37.06-308.35,19.65-388.04,116.24-163.36,570.37-126.85,657.83,57.55,28.73,60.56,6.1,112.23-23.52,256.68-39.4,192.18-51.16,354.22-54.31,467.44-.42,14.97-9.37,28.3-23.09,34.3-209.29,91.63-451.77,66.7-637.85-82.82Z"/>
  <path class="cls-5" d="M940.93,955.68c4.49,6.81,64.9,96.4,131.27,92.64,9.42-.53,28.54-1.62,44.51-15.96,19.34-17.37,20.88-42.4,21.08-48.98-12-13.12-24-26.23-36-39.35l-83.26-19.94c-25.87,10.53-51.73,21.05-77.6,31.58Z"/>
  <path class="cls-1" d="M879.03,2287.98c-2.26,0-3.75-2.44-2.62-4.46l94-168.98c1.91-3.46,7.18-.56,5.24,2.92-95.26,171.24-93.88,170.53-96.62,170.53Z"/>
  <path class="cls-1" d="M949.52,642.96c96.18,66.86,208.81-36.98,268.36-138.54,41.54,35.86,62.38,86.47,61.56,139.84,48.59-87.11,37.29-198.18-61.62-182.27-55.94-46.48-134.67-53.02-195.22-16.87-66.09,39.45-97.14,121.77-73.09,197.84Z"/>
  <path class="cls-5" d="M1001.82,664.2c-17.07-26.42-50-32.55-69.35-8.75-15.88,19.53-7.42,46.85-6.56,49.49,9.48,29.08,49.11,49.06,98.18,47.16-7.42-29.3-14.85-58.6-22.27-87.9Z"/>
  <path class="cls-1" d="M983.84,718.18c-5.02,0-11.47-2.86-15.45-8.1-8.12-10.72-2.59-23.75,9.9-27.23-7.47-7.35-17.34-10.77-27.12-10.24-3.82.46-4.43-5.76-.34-5.99,13.54-.82,27.16,5.19,35.78,16.65,1.6,2.12-.24,5.01-2.44,4.8-10.36.04-17.79,9.43-11,18.38,2.55,3.37,6.51,5.46,10.85,5.73,3.84.25,3.66,5.99-.19,5.99Z"/>
  <path class="cls-2" d="M1269.81,1527.7l46.87-245.06c.74-3.9,6.64-2.77,5.89,1.12l-46.87,245.06c-.75,3.9-6.64,2.77-5.89-1.12Z"/>
  <path class="cls-2" d="M641.8,1217.16l18.83-126.69c.58-3.92,6.52-3.04,5.93.88l-18.83,126.69c-.57,3.93-6.52,3.05-5.93-.88Z"/>
  <path class="cls-2" d="M931.46,953.51c-.22,0-104.76-24.22-114.5-26.48-3.84-.89-2.55-6.72,1.36-5.85l113.82,26.41c3.46.8,2.87,5.92-.68,5.92Z"/>
  <path class="cls-2" d="M1208.86,1012.8c-.76,0-.11.12-65.68-21.36-3.77-1.23-1.92-6.92,1.86-5.71l64.75,21.22c3.24,1.07,2.46,5.85-.93,5.85Z"/>
  <path class="cls-5" d="M838.99,435.18s59.12-16.31,88.91-50.33c29.79-34.02,45.47-95.35,54.23-120.43,8.76-25.08-48.57-18.35-75.29,48.46,0,0-14.06-63.22,3.45-106.84,17.52-43.62,29.75-79.02,5.81-74.53-23.94,4.49-51.59,86.02-51.59,86.02,0,0,30.31-80.02,11.3-88.16-19.01-8.14-49.01,83.53-49.01,83.53,0,0,25.48-79.34,4.5-82-20.98-2.65-43.9,92.34-43.9,92.34,0,0,27.65-81.53,3.91-82.82-23.74-1.28-50.99,109.34-48.21,155.14,2.78,45.8,39.21,130.48,39.21,130.48l56.68,9.13Z"/>
  <path class="cls-5" d="M1700.27,1098.5c-7.44-24.63-11.52-50.95-11.93-73.69-.49-27.26,4.41-25.89,16.4-92.61,2.47-13.76,4.68-27.26,11.55-28.71,7.55-1.59,36.52,19.42,24.88,92.01,36.32,43.47,20.82,108.27-40.89,103Z"/>
  <path class="cls-5" d="M1816.34,878.13s42.74-26.16,31.84,40.45c0,0,33.6-7.66,18.86,37.73,0,0,29.18-3.24,14.15,34.19,0,0,27.31,1.77,23.58,25.54-3.73,23.78-49.71,69.36-67.59,56.98-17.88-12.38,12.58-50.7,12.58-50.7-37.74,50.39-64.84,28.29-22.79-37.33,0,0-36.94,45.19-46.37,25.94-9.43-19.26,23.58-62.09,23.58-62.09,0,0-13.75,22.79-32.42,10.41-18.67-12.38,11.98-61.85,44.6-81.13Z"/>
  <path class="cls-1" d="M368.48,953.51c-2.56,0-3.97-3.04-2.25-4.99l90.18-102.04c2.63-2.98,7.13,1,4.5,3.97-91.62,103.67-90.32,103.05-92.43,103.05Z"/>
  <path class="cls-1" d="M839.27,330.98c26.4-28.86,66.44-21.38,68.14-21.04,3.92.76,2.69,6.7-1.15,5.88-.38-.06-38.47-7.12-62.56,19.21-2.61,2.84-7.14-1.09-4.43-4.05Z"/>
  <path class="cls-1" d="M787.44,259.34c-6.56-31.1,6.78-73.14,7.35-74.92,1.2-3.77,6.93-1.94,5.71,1.84-.13.42-13.42,42.32-7.19,71.84.81,3.88-5.05,5.12-5.87,1.24Z"/>
  <path class="cls-1" d="M823.61,250.68c-5.97-21.08,6.12-59.62,6.63-61.26,1.19-3.77,6.92-1.99,5.72,1.82-.12.38-12.06,38.46-6.57,57.8,1.08,3.82-4.69,5.46-5.78,1.64Z"/>
  <path class="cls-1" d="M862.96,247.4c-8.16,0-3.65-33.91,7.85-58.35,1.69-3.59,7.12-1.03,5.43,2.55-.15.32-14.82,31.94-10.34,52.15.41,1.87-1,3.65-2.93,3.65Z"/>
  <path class="cls-1" d="M1795.89,954.11c10.87-14.98,33.64-38.53,52.29-38.53,3.95,0,3.98,5.96.04,6-21.23.26-47.21,35.7-47.47,36.06-2.28,3.15-7.21-.28-4.85-3.53Z"/>
  <path class="cls-1" d="M1818.48,990.11c23.61-29.63,50.59-42.98,51.54-34.11.18,1.65-1.02,3.12-2.67,3.3-17.99,1.9-43.92,34.22-44.17,34.55-2.41,3.03-7.2-.58-4.7-3.74Z"/>
  <path class="cls-1" d="M1842.59,1026.42c17.06-24.82,38.82-45.9,41.48-36.75.46,1.59-.46,3.26-2.05,3.71-9.67,2.79-28.17,27.25-34.49,36.43-2.21,3.21-7.21-.09-4.95-3.4Z"/>
  <path class="cls-1" d="M1541.05,1722.34l51.49-134.27c1.43-3.7,7.02-1.56,5.6,2.14l-51.49,134.27c-1.42,3.71-7.02,1.56-5.6-2.14Z"/>
</svg>