<?xml version="1.0" encoding="UTF-8"?>
<svg id="Marketing_Funnel" data-name="Marketing Funnel" xmlns="http://www.w3.org/2000/svg" viewBox="0 0 3000 3000">
  <defs>
    <style>
      .cls-1 {
        fill: #111;
      }

      .cls-2 {
        fill: #f2f1f2;
      }

      .cls-3 {
        fill: #d8d7d8;
      }

      .cls-4 {
        fill: #b3b2b3;
      }

      .cls-5 {
        fill: #d6a884;
      }

      .cls-6 {
        fill: #f5b401;
      }
    </style>
  </defs>
  <rect class="cls-6" x="755.59" y="2778.55" width="209.27" height="62.32" rx="17.25" ry="17.25"/>
  <rect class="cls-6" x="755.59" y="2720.53" width="209.27" height="62.32" rx="17.25" ry="17.25"/>
  <path class="cls-1" d="M2644.16,608.39c-125.39,12.94-19.61-165.07-131.93-124.66-112.32,40.41-104,25.55-181.84-91.52-77.85-117.07-180.58-76.03-180.58-76.03l-137.94,131.2s-14.86,137.37,9.38,183.37c24.24,46,80.35,53.24,61.58,95.43-18.77,42.19,7.48,181.84,242.8,164.01,235.32-17.83,443.91-294.75,318.52-281.81Z"/>
  <rect class="cls-5" x="2154.82" y="517.13" width="145.99" height="280.27" transform="translate(-94.93 653.28) rotate(-16.34)"/>
  <circle class="cls-5" cx="2144.05" cy="462.29" r="120.51"/>
  <path class="cls-5" d="M2034.8,513.2c3.44,11.76,8.85,29.12,16.52,49.78,21.2,57.07,32.27,85.83,55.39,96.37,25.74,11.74,55.28-2.03,66.77-7.39,68.99-32.17,97.88-130.28,90.16-204.57-76.28,21.94-152.56,43.88-228.83,65.82Z"/>
  <circle class="cls-1" cx="2094.53" cy="534.86" r="8.55"/>
  <path class="cls-1" d="M2116.99,503.41c-.18,2.9-10.88.82-27.84,8.28-8.28,3.65-14,7.78-17.77,5.28-2.08-1.38-2.93-4.36-2.68-6.68.82-7.64,13.96-12.95,24.02-13.85,12.12-1.08,24.47,3.83,24.28,6.97Z"/>
  <path class="cls-5" d="M2033.19,507.68s19.15,54.01,15.99,77.72c-3.15,23.7,12.71,17.67,28.22,11.14,15.52-6.53-7.12-63.48-7.12-63.48l-37.1-25.37Z"/>
  <path class="cls-1" d="M2104.43,607.66c.57,3.63,9.02,6.82,15.56,4.9,12.74-3.75,16.21-26.31,12.73-28.35-1.44-.85-3.27,2.33-16.15,12.28-9.25,7.15-12.52,8.76-12.14,11.18Z"/>
  <path class="cls-1" d="M2152.61,663.19c-3.39,0-4.16-4.77-.95-5.84.45-.15,45.73-15.68,70.35-57.55,2-3.43,7.19-.38,5.17,3.04-23.75,40.39-69.73,60.36-74.57,60.36Z"/>
  <path class="cls-5" d="M2117.75,751.38c-64.48,43.86-106.78,96.02-141.53,159.64-35.21,64.46-84.25,147.97-148.37,254.76-88.56-116.36-177.12-232.71-265.68-349.07-2.47-2.83-44.68-49.74-99.2-38.53-38.79,7.98-75.69,43.7-70.39,69.94,3.22,15.97,21.54,25.81,48.82,40.47,19.95,10.72,37.83,16.56,50.03,19.84,53.85,155.09,173.81,457.82,336.89,465.39,170.53,7.95,263.66-247.61,351.98-489.98,23.78-65.25,4.32-113.73-62.55-132.47Z"/>
  <path class="cls-1" d="M2218.62,470.11c-64.15,39.57-148.68,14.8-181.33-53.13,0,0-14.96,31.09-8.89,79.22,0,0-96.49-89.06-9.23-103.4,66.45-73.29,154.34-96.09,205.9-64.66,40.35,24.59,52.66,79.42,57.91,102.89,12.73,56.91-.78,104.26-8.52,125.9-46.18-.88-68.12-44.12-55.86-86.83Z"/>
  <path class="cls-5" d="M2196.39,480.93c7.41-21.87,29.77-32.15,47.81-18.67,14.81,11.06,13.69,32.03,13.55,34.06-1.54,22.41-26.17,43.74-61.45,51.2.03-22.19.06-44.39.09-66.58Z"/>
  <path class="cls-1" d="M2217.42,511.16c5.83-1.87,8.16-8.05,6.3-11.86-1.4-2.83-5.62-5-10.28-3.76-2.39.65-4.51-1.76-3.54-4.06,1.99-4.73,5.12-8.94,9.07-12.18,4.36-3.57,16.4-10.05,17.52-4.19.31,1.63-.76,3.2-2.38,3.52-6.43,1.23-12.33,4.95-16.22,10.67,16.53,1.83,16.14,22.85,1.37,27.57-3.85,1.22-5.55-4.52-1.83-5.71Z"/>
  <g>
    <circle class="cls-2" cx="551.19" cy="233.6" r="167.49"/>
    <g>
      <circle class="cls-4" cx="551.19" cy="171.25" r="50.98"/>
      <path class="cls-4" d="M551.19,216.14c-49.36,0-90.97,38.59-104.23,91.42-2.53,10.07,5.2,19.83,15.58,19.83h177.29c10.38,0,18.11-9.77,15.58-19.83-13.26-52.83-54.86-91.42-104.23-91.42Z"/>
    </g>
  </g>
  <rect class="cls-3" x="293.22" y="1244.08" width="1153.23" height="124.11" rx="57.82" ry="57.82"/>
  <path class="cls-3" d="M1397.66,1318.55c-6.36,7.71-521.45,632.01-527.82,639.72-6.36-7.71-521.45-632.01-527.82-639.72h1055.63Z"/>
  <path class="cls-3" d="M951.94,2137.38l-153.11,75.46c-8.34,4.11-18.09-1.96-18.09-11.25v-476.44c0-6.93,5.62-12.55,12.55-12.55h153.11c6.93,0,12.55,5.62,12.55,12.55v400.98c0,4.78-2.71,9.14-7,11.25Z"/>
  <path class="cls-5" d="M2233.37,1308.48c-62.77,67.68-111.9,126.88-146.93,170.96-152.41,191.82-264.83,331.34-264.21,584.77.19,75.07-.48,333.06,1.11,684.55,43.38,5.79,86.76,11.59,130.14,17.38,59.68-412.8,135.83-533.46,133.14-841.78,110.36-57.03,187.22-119.94,236.03-165.92,82.13-77.36,220.34-207.53,221.06-385.06.16-39-6.35-71.09-12-92.36l-298.36,27.45Z"/>
  <path class="cls-5" d="M2628.27,1242.64c67.8,276.36-80.69,521.92-307.37,678.96,93.86,151.52,119.57,267.68,138.46,331.22,34.98,117.67,77.76,257.86,130.14,429.11-35.76,20.49-71.52,40.99-107.28,61.48-57.15-80.33-137.1-198.79-222.53-348.45-143.52-251.42-221.81-376.98-221.81-511.88,0,0,2.54-114.68,339.47-601.51l250.91-38.93Z"/>
  <path class="cls-2" d="M2218.46,700.43c-143.83,55.89-185.49,117.6-195.03,165.91-13.92,70.55,41.62,109.02,95.86,243.56,37.79,93.74,51.6,176.02,57.46,228.06,159.41,63.48,333.43,50.22,473.03-54.67-6-68.14-16-167.69-32.65-287.87-34.2-247-55.52-285.47-89.14-310.84-96.94-73.13-255.12-5.29-309.53,15.85Z"/>
  <path class="cls-1" d="M2174.24,1317.77s297.23,46.76,467.95-75.13c0,0,40.57,77.79,46.81,215.95,5.25,116.19,1.67,368.55.4,445.88-.23,14.05-9.51,26.28-22.96,30.38-98.9,30.16-502.7,129.82-806.66-142.79-13.18-11.82-15.36-31.66-4.78-45.86l319.25-428.43Z"/>
  <path class="cls-2" d="M2572.82,2626.34l94.78,123.4c7.72,10.06,7.11,24.25-1.59,33.47-93.2,98.79-219.5,150.54-354.25,150.68-12.85.01-22.81-12.53-18.26-25.18,11.32-31.42,57.49-34.69,84.91-48.82,29.48-15.2,61.31-55.37,68.58-166.8,50.47-2.92,95.33-27.43,125.83-66.75Z"/>
  <path class="cls-2" d="M1956.15,2748.88c5.04,54.49,10.08,108.98,15.12,163.48,1.07,11.56-8.03,21.54-19.64,21.54h-365.85c-11.84,0-20.38-11.4-16.98-22.74,8.05-26.85,41.27-34.21,68.58-38.42,38.58-5.95,97.51-35.29,186.92-137.72,40.69,20.92,87.7,25.86,131.85,13.86Z"/>
  <path class="cls-5" d="M2375.17,654.99c22.43-2.52,56.72-3.11,93.52,10.89,64.13,24.4,97.28,78.43,131.11,135.28,30.85,51.85,45.26,93.3,64.84,150.67,57.45,168.31,81.89,242.05,11.44,402.42-34.55,78.65-100.93,201.94-230.77,335.67-27.34-19.71-54.67-39.41-82.01-59.12,65.48-134.78,130.96-269.55,196.44-404.33-61.53-190.49-123.05-380.98-184.58-571.48Z"/>
  <path class="cls-2" d="M2356.25,657.06c33.08,103.13,66.15,206.26,99.23,309.4,61.2-33.74,122.41-67.48,183.62-101.22,8.32-4.58,11.54-14.92,7.21-23.38-11.66-22.78-27.96-50.81-50.33-80.74-30.34-40.59-51.9-69.44-87.96-89.23-57.33-31.46-119.4-22.53-151.76-14.83Z"/>
  <path class="cls-5" d="M2307.33,669.02s-26.3,67.27-65.1,82.72c-38.8,15.45-72.48-33.09-72.48-33.09l27.78-29.68,43.01-19.95h66.79Z"/>
  <path class="cls-5" d="M2402.3,1568.83s-82.6,60.12-100.73,90.28c-18.12,30.16-44.87,109.1-27.34,118.54,17.53,9.44,50.51-66.61,50.51-66.61,0,0-38.33,82.61-17.23,89.17,21.1,6.56,49.92-67.14,49.92-67.14,0,0-26.15,80.78-7.13,85.5,19.02,4.72,41.6-70.29,41.6-70.29-3.02,19.36-9.62,67.98,3.27,72.52,1.77.62,3.4.24,4.79-.08,13.41-3.12,18.18-27.18,22.14-47.1,1.2-6.04,2.6-14.5,3.38-24.81,93.27-71.45,74.45-165.18,33.96-183.82-25.5-11.74-54.11,2.31-57.13,3.84Z"/>
  <path class="cls-2" d="M2107.1,756.88s-70.27,49.38-113.06,105.09c-32.2,41.92-73.47,117.15-91.94,151.83-5.4,10.15-1.52,22.75,8.64,28.13l162.56,86.11c8.04,4.26,18.01,1.49,22.7-6.31l49.58-82.37-38.48-282.48Z"/>
  <path class="cls-1" d="M2078.47,2073.17c-2.52-4.55-61.6-111.92-43.42-165.41,1.28-3.73,6.97-1.85,5.68,1.93-17.33,50.98,42.38,159.47,42.99,160.56,1.92,3.47-3.33,6.35-5.25,2.92Z"/>
  <path class="cls-1" d="M2467.33,2739.61c-8,0-14.81-4.71-17.75-10.08-1.9-3.48,3.33-6.36,5.26-2.89,0,0,2.97,5.36,9.49,6.68,6.02,1.24,13.17-1.34,21.25-7.6,3.14-2.43,6.81,2.3,3.68,4.75-7.86,6.08-15.21,9.15-21.93,9.15Z"/>
  <path class="cls-1" d="M2459.95,2777.67c-8.04,0-14.9-4.79-17.75-10.09-1.9-3.47,3.36-6.36,5.26-2.88.15.27,3.13,5.39,9.49,6.67,6,1.24,13.18-1.34,21.26-7.6,3.14-2.43,6.82,2.31,3.68,4.75-7.86,6.08-15.21,9.15-21.93,9.15Z"/>
  <path class="cls-1" d="M1798.43,2770.24c-1.22-3.78,4.46-5.62,5.7-1.87,0,0,5.88,18.26,29.83,15.79,3.84-.51,4.63,5.56.61,5.96-18.79,1.94-32.23-8.14-36.14-19.88Z"/>
  <path class="cls-1" d="M1775.49,2794.83c-1.22-3.77,4.46-5.63,5.71-1.87.28.84,6.54,18.12,29.82,15.78,3.94-.43,4.56,5.57.61,5.96-18.71,1.92-32.2-8.06-36.14-19.87Z"/>
  <path class="cls-1" d="M2469.89,958.03l-58.52-154.72c-1.4-3.71,4.2-5.83,5.61-2.12l58.52,154.72c1.4,3.71-4.2,5.83-5.61,2.12Z"/>
  <path class="cls-1" d="M2112.68,1097.02c-2.8,0-1.4.75-62.45-113.9-1.87-3.5,3.43-6.32,5.3-2.82l59.81,112.31c1.06,1.99-.39,4.41-2.65,4.41Z"/>
  <path class="cls-1" d="M1869.24,1244.23c-12.29-43.02-43.26-76.06-43.58-76.39-2.71-2.87,1.6-7.01,4.36-4.13,1.31,1.39,32.28,34.4,44.98,78.88,1.1,3.81-4.68,5.46-5.77,1.65Z"/>
  <path class="cls-1" d="M2306.74,1740.71c.13-.34,12.83-34.67,29.72-62.02,2.08-3.37,7.2-.23,5.11,3.15-16.58,26.82-29.07,60.6-29.19,60.94-1.38,3.72-7,1.66-5.64-2.07Z"/>
  <path class="cls-1" d="M2347.22,1749.1c.49-1.56,12.17-38.53,24.58-55.46,2.36-3.19,7.19.35,4.84,3.55-11.82,16.12-23.57,53.33-23.69,53.7-1.19,3.78-6.91,2-5.73-1.79Z"/>
  <path class="cls-1" d="M2387,1761.45c.04-1.27,1.11-31.35,14.56-52.08,2.17-3.31,7.19-.08,5.04,3.27-12.53,19.31-13.59,48.71-13.6,49-.13,3.97-6.11,3.78-6-.19Z"/>
  <ellipse class="cls-1" cx="872.02" cy="1252.35" rx="537.74" ry="47.75"/>
  <g>
    <rect class="cls-4" x="735.28" y="993.01" width="274.04" height="274.04" rx="61.69" ry="61.69" transform="translate(-220.82 211.9) rotate(-12.31)"/>
    <path class="cls-2" d="M792.57,1091.28c-4.2-19.25,14.02-35.83,32.79-29.85,9.53,3.04,95,30.3,104.52,33.34,18.77,5.99,24.03,30.06,9.45,43.32-7.4,6.73-73.74,67.12-81.14,73.85-14.57,13.26-38.04,5.78-42.24-13.48-2.13-9.77-21.25-97.42-23.39-107.19Z"/>
  </g>
  <g>
    <circle class="cls-2" cx="417.58" cy="908.65" r="136.57"/>
    <path class="cls-4" d="M467.76,953.05l-61.8,43.18c-2.18,1.52-5.18.99-6.7-1.19-47.32-67.71-51.61-71.45-57.4-89.66-3.34-10.51-7.27-22.15-4.15-36.46,11.47-52.69,79.96-47.87,89.82,3.21,28.86-49.32,90.65-17.18,78.53,26.74-5.85,21.21-18.86,40.59-38.3,54.18Z"/>
  </g>
  <g>
    <rect class="cls-2" x="573.82" y="538.49" width="293.54" height="218.81" rx="30.77" ry="30.77" transform="translate(456.45 -284.44) rotate(32.22)"/>
    <path class="cls-1" d="M728.05,662.04c-11.39,0-21.8-7.46-25.22-18.64l-47.37-155.06c-1.15-3.8,4.58-5.55,5.74-1.75l47.37,155.06c2.96,9.69,12.7,15.76,22.75,14.12l156.81-25.78c3.88-.68,4.92,5.27.97,5.92-160.94,26.46-157.75,26.13-161.05,26.13Z"/>
    <path class="cls-1" d="M551.19,660.44c-3.46,0-4.15-4.93-.83-5.88l146.23-42.04c3.79-1.11,5.49,4.67,1.65,5.77-9.61,2.76-146.78,42.16-147.05,42.16Z"/>
    <path class="cls-1" d="M780,805.76l-17.16-152.29c-.43-3.94,5.5-4.61,5.96-.67l17.16,152.29c.44,3.95-5.51,4.62-5.96.67Z"/>
  </g>
  <g>
    <path class="cls-4" d="M1056.1,402.05c-38.65,34.9-77.3,69.81-115.95,104.71-5.66,5.12-14.69,3-17.5-4.1-19.12-48.44-38.24-96.88-57.35-145.33,9.74,2.28,181.06,42.43,190.8,44.71Z"/>
    <path class="cls-4" d="M1001.18,206.97c-62.38-14.62-124.79,24.1-139.41,86.48-14.62,62.38,24.1,124.79,86.48,139.41,62.38,14.62,124.79-24.1,139.41-86.48,14.62-62.38-24.1-124.79-86.48-139.41ZM970,340.02c-17.56-4.12-28.46-21.69-24.35-39.25,4.12-17.56,21.69-28.46,39.25-24.35,17.56,4.12,28.46,21.69,24.35,39.25-4.12,17.56-21.69,28.46-39.25,24.35Z"/>
  </g>
  <g>
    <g>
      <path class="cls-3" d="M1376.33,888.6l57.13,25.54c6.31,2.82,13.7.34,17.07-5.69,31.11-55.62,57.97-115.13,79.51-177.85,2.24-6.53-.84-13.69-7.15-16.51l-41.51-18.56c-7.06-3.16-15.27.36-17.94,7.62-22.02,59.88-53.24,115.79-92.15,165.09-5.37,6.81-2.89,16.82,5.03,20.36Z"/>
      <rect class="cls-3" x="1478.6" y="630.87" width="132.71" height="124.23" rx="42.29" ry="42.29" transform="translate(2752.84 1879.64) rotate(-159.67)"/>
      <path class="cls-3" d="M1104.4,716.98c140.01-16.67,277.1-3.15,406.71,38.19,8.95,2.85,18.91-2.74,22.61-12.72l34.38-92.77c4.02-10.84-.25-22.49-9.65-26.48-128.5-54.56-239.92-135.03-332.01-235.51l-122.03,329.3Z"/>
      <ellipse class="cls-2" cx="1166.91" cy="552.89" rx="175.59" ry="33.55" transform="translate(242.99 1454.96) rotate(-69.67)"/>
      <path class="cls-3" d="M1172.35,598.86l42.84,23.78c9.01,5,20.36.8,23.94-8.87l22.24-60c3.58-9.66-2.29-20.25-12.38-22.33l-47.99-9.88c-8.14-1.68-16.28,2.84-19.17,10.63l-17.09,46.11c-2.89,7.79.35,16.53,7.61,20.56Z"/>
    </g>
    <path class="cls-1" d="M1530.88,741.45l35.94-101.26c1.34-3.73,6.98-1.74,5.66,2l-35.94,101.26c-1.34,3.74-6.98,1.73-5.66-2Z"/>
    <path class="cls-1" d="M1183.34,601.23c13.75-25.02,26.14-74.26,26.27-74.75.97-3.88,6.77-2.38,5.82,1.45-.52,2.05-12.7,50.49-26.83,76.19-1.91,3.45-7.16.57-5.26-2.89Z"/>
  </g>
  <path class="cls-5" d="M1574.95,856.03s-12.26-49.69-34.32-74.43c-22.06-24.74-48.58-73.09-61.51-66.41-12.93,6.69-18.72,48.85,16.49,76.91,0,0-2.67,105.16,79.33,63.93Z"/>
  <path class="cls-5" d="M1449.61,737.52c-9.54-5.71-17.91-6.96-22.71-7.24-6.02-.36-11.72-.69-15.3,3.07-3.94,4.14-3.99,11.83-.39,19.48-7.94-3.91-17.38-1.11-21.57,5.85-3.63,6.02-2.72,14.13,2.43,19.64,0,0-31.83,3.04-18.13,26.53,0,0-27.66,6.41-16.35,24.93,11.3,18.52,45.69,33.03,59.32,26.13,13.63-6.89-8.34-24.69-8.34-24.69,29.71,11.54,41.56-12.52,12.5-25.01,35.58,10.7,42.42-10.09,15.07-25.33,0,0,17.57,4.87,26.82-2.69,9.25-7.57-17.52-28.73-17.52-28.73l4.17-11.93Z"/>
  <path class="cls-1" d="M1506.63,849.55c-12.05-16.06-12.22-34.09-12.22-34.85-.01-3.96,5.99-3.98,6-.02,0,.17.21,16.85,11.03,31.26,2.4,3.21-2.47,6.7-4.8,3.6Z"/>
  <path class="cls-1" d="M1408.57,834.21c-5.7,0-25.75-14.2-36.93-27.44-2.55-3.04,2.03-6.89,4.59-3.86.15.18,15.86,18.66,33.42,25.51,3.08,1.2,2.21,5.79-1.09,5.79Z"/>
  <path class="cls-1" d="M1427.52,812.73c-4.16,0-26.46-16.97-37.87-32.65-2.33-3.19,2.48-6.76,4.84-3.54.14.19,14.38,19.43,34.49,30.57,2.7,1.5,1.63,5.62-1.45,5.62Z"/>
  <path class="cls-1" d="M1440.49,784.78c-17.33-4.88-32.7-33.02-33.35-34.22-1.89-3.5,3.41-6.33,5.28-2.85.15.27,14.8,27.1,29.7,31.29,3.76,1.07,2.26,6.85-1.63,5.78Z"/>
  <path class="cls-1" d="M1445.44,752.45c-1.27,0-.72.17-11.67-7.55-3.23-2.27.18-7.19,3.46-4.9l9.94,7c2.38,1.68,1.2,5.45-1.73,5.45Z"/>
  <g>
    <ellipse class="cls-6" cx="979.26" cy="2453.06" rx="90.08" ry="65.78" transform="translate(-1113.21 841.22) rotate(-30.63)"/>
    <ellipse class="cls-6" cx="985.68" cy="2463.9" rx="90.08" ry="65.78" transform="translate(-1117.83 846) rotate(-30.63)"/>
    <path class="cls-2" d="M960.74,2515.63c-41.74,0-64.46-32.62-48.44-69.94,23.57-54.94,107.37-74.92,132.97-31.71,24.56,41.5-27.36,101.65-84.53,101.65ZM917.81,2448.06c-21.55,50.2,33.91,80.37,87.35,48.73,28.69-16.98,51.1-52.48,34.95-79.75-23.13-39.08-100.75-19.19-122.29,31.02Z"/>
    <path class="cls-2" d="M991.56,2482.37l-4.48-7.56c-7.55,4.3-15.49,7.9-23.96,9.82l-5.88-9.93c6.96-1.38,16.95-4.67,24.61-8.74l-6.9-11.66c-13.66,3.58-26.12,6.41-31.55-2.76-5.51-9.31,5.22-20.17,14.31-26.35l-3.41-5.75,7.06-4.18,3.32,5.6c7.6-4.24,14.92-7.26,23.38-9.16l.37,11.67c-6.38,1.56-12.8,4.03-18.22,6.83l6.57,11.09c9.19-2.54,17.52-4.61,23.96-3.47,9.04,1.59,17.67,15.98-6.68,32.66l4.56,7.71-7.05,4.18ZM968.46,2443.36l-5.23-8.84c-7.52,5.56-5.14,10.09.57,9.61,1.27-.11,2.81-.36,4.66-.77ZM988.74,2461.52c2.87-2.22,6.22-5.49,4.38-8.59-1.56-2.64-6.47-1.55-9.92-.77l5.54,9.36Z"/>
  </g>
  <g>
    <ellipse class="cls-6" cx="892.77" cy="2294.6" rx="65.34" ry="89.48" transform="translate(-1529.27 2737.25) rotate(-79.1)"/>
    <ellipse class="cls-6" cx="890.4" cy="2306.88" rx="65.34" ry="89.48" transform="translate(-1543.25 2744.89) rotate(-79.1)"/>
    <path class="cls-2" d="M901.39,2351.91c-43.89,0-91.14-31.9-83.47-71.72,5.89-30.57,44.27-48.94,85.53-41.03,41.27,7.95,70.05,39.29,64.17,69.87-5.48,28.46-36.71,42.89-66.22,42.89ZM884.16,2243.29c-52.13,0-79.4,41.97-47.16,76.58,11.26,12.09,27.67,20.71,46.22,24.28h0c32.65,6.3,72.58-5.48,78.5-36.27,6.14-31.91-31.37-64.59-77.57-64.59Z"/>
    <path class="cls-2" d="M882.92,2324.41l1.65-8.57c-8.41-1.76-16.76-4.35-24.29-8.48l2.17-11.26c5.96,3.48,15.63,7.68,24.05,9.72l2.54-13.22c-14.25-7.24-23.55-13-21.64-22.83,2.04-10.61,17.24-11.54,28-10.18l1.26-6.52,8,1.54-1.22,6.35c8.4,1.84,15.89,4.43,23.42,8.58l-7.41,8.92c-5.73-3.02-12.15-5.42-18.05-6.92l-2.42,12.57c9.06,4.43,16.09,8.15,20.11,13.21,5.63,7.08,2.72,23.54-26.48,19.89l-1.69,8.74-7.99-1.55ZM891.43,2280.2l1.93-10.02c-9.16-.79-10.53,4.08-5.9,7.52,1,.76,2.33,1.59,3.97,2.5ZM894.56,2307.07c3.58.23,8.23.02,8.91-3.5.58-3-3.81-5.44-6.87-7.11l-2.04,10.62Z"/>
  </g>
  <g>
    <circle class="cls-6" cx="706.91" cy="2596.41" r="86.69"/>
    <path class="cls-2" d="M706.89,2670.35c-48.47,0-83.9-46.13-71.43-92.96,10.49-39.4,51.05-62.91,90.47-52.43,39.39,10.49,62.91,51.07,52.43,90.47-8.8,33.05-38.78,54.93-71.47,54.93ZM689.43,2662.06c36.2,9.65,73.49-11.98,83.13-48.18,9.64-36.2-11.98-73.49-48.18-83.12-36.21-9.65-73.49,11.98-83.13,48.18-9.64,36.2,11.98,73.49,48.18,83.12h0Z"/>
    <path class="cls-2" d="M692.69,2635.68l2.98-11.19c-8.21-2.38-15.89-5.78-22.56-11.13l3.91-14.7c5.4,4.63,14.18,10.07,22.13,12.75l4.6-17.26c-13.43-9.86-21.04-17.34-17.7-29.87,3.32-12.46,16.46-15.45,29.17-13.22l2.27-8.52,7.62,2.03-2.21,8.3c8.07,2.45,15,5.87,21.69,11.26l-8.71,11.64c-5.18-3.98-11.12-7.12-16.66-9.08l-4.37,16.42c8.26,5.82,14.6,10.8,17.7,17.3,4.39,9.21-.93,30.76-29.2,25.91l-3.04,11.41-7.62-2.03ZM708.06,2577.95l3.48-13.08c-8.9-1.05-11.01,5.27-7,9.82.88.99,2.05,2.07,3.52,3.26ZM706.88,2613.04c4.3.4,8.2-.36,9.32-4.55.99-3.76-2.43-6.71-5.63-9.32l-3.69,13.86Z"/>
  </g>
  <g>
    <circle class="cls-6" cx="1189.33" cy="2633.5" r="86.69"/>
    <path class="cls-2" d="M1189.43,2707.46c-27.52,0-54.72-15.58-67.36-43.25-16.93-37.09-.53-81.03,36.56-97.97,37.11-16.93,81.03-.53,97.97,36.56,22.4,49.07-13.84,104.67-67.17,104.67ZM1189.23,2565.56c-49.07,0-82.25,51.13-61.7,96.15,15.57,34.1,55.91,49.16,90.01,33.59h0c34.08-15.56,49.15-55.93,33.59-90.01-11.39-24.96-36.11-39.73-61.9-39.73ZM1218.79,2698.03h.06-.06Z"/>
    <path class="cls-2" d="M1202.91,2673.1l-4.8-10.53c-7.89,3.38-15.91,5.63-24.49,5.72l-6.32-13.83c7.1.15,17.33-1.23,25.18-4.21l-7.42-16.25c-15.59.84-27.08.34-32.62-11.84-5.36-11.73,2.88-22.38,14.11-28.73l-3.66-8.02,7.18-3.28,3.57,7.81c7.76-3.22,15.28-4.99,23.89-5.08l.68,14.51c-6.52.24-12.99,1.54-18.64,3.57l7.06,15.46c10.47-.77,18.23-.87,24.65,2.12,9.4,4.38,18.63,24.44-6.08,38.56l4.9,10.74-7.18,3.28ZM1178.1,2618.75l-5.62-12.32c-7.64,4.93-5.01,11.06.84,12.04,1.29.21,2.89.3,4.78.28ZM1199.5,2646.6c3.55-2.42,6.1-5.49,4.3-9.43-1.6-3.53-6.16-3.65-10.26-3.62l5.96,13.05Z"/>
  </g>
  <rect class="cls-6" x="838.83" y="2865.58" width="209.27" height="62.32" rx="17.25" ry="17.25"/>
  <rect class="cls-6" x="838.83" y="2807.56" width="209.27" height="62.32" rx="17.25" ry="17.25"/>
  <rect class="cls-6" x="682.31" y="2865.58" width="209.27" height="62.32" rx="17.25" ry="17.25"/>
  <rect class="cls-6" x="682.31" y="2807.56" width="209.27" height="62.32" rx="17.25" ry="17.25"/>
  <rect class="cls-6" x="838.83" y="2749.54" width="209.27" height="62.32" rx="17.25" ry="17.25"/>
  <rect class="cls-6" x="838.83" y="2691.52" width="209.27" height="62.32" rx="17.25" ry="17.25"/>
  <rect class="cls-6" x="838.83" y="2633.5" width="209.27" height="62.32" rx="17.25" ry="17.25"/>
  <rect class="cls-6" x="838.83" y="2575.48" width="209.27" height="62.32" rx="17.25" ry="17.25"/>
  <rect class="cls-6" x="1002.37" y="2865.58" width="209.27" height="62.32" rx="17.25" ry="17.25"/>
  <rect class="cls-6" x="1002.37" y="2807.56" width="209.27" height="62.32" rx="17.25" ry="17.25"/>
  <rect class="cls-6" x="1002.37" y="2749.54" width="209.27" height="62.32" rx="17.25" ry="17.25"/>
  <path class="cls-2" d="M1044.55,2814.86h-18.66c-13.38,0-24.26-11.51-24.26-25.66v-17c0-14.15,10.88-25.66,24.26-25.66h14.57c3.97,0,3.97,6,0,6h-14.57c-10.07,0-18.26,8.82-18.26,19.66v17c0,10.84,8.19,19.66,18.26,19.66h18.66c3.97,0,3.97,6,0,6Z"/>
  <path class="cls-2" d="M1200.61,2871.08h-174.71c-13.38,0-24.26-10.57-24.26-23.56v-15.43c0-13,10.88-23.57,24.26-23.57h174.71c3.97,0,3.97,6,0,6h-174.71c-10.07,0-18.26,7.88-18.26,17.57v15.43c0,9.69,8.19,17.56,18.26,17.56h174.71c3.97,0,3.97,6,0,6Z"/>
  <path class="cls-2" d="M1044.55,2927.63h-18.66c-13.38,0-24.26-10.57-24.26-23.56v-15.43c0-12.99,10.88-23.56,24.26-23.56h14.57c3.97,0,3.97,6,0,6h-14.57c-10.07,0-18.26,7.87-18.26,17.56v15.43c0,9.69,8.19,17.56,18.26,17.56h18.66c3.97,0,3.97,6,0,6Z"/>
  <path class="cls-2" d="M1013.52,2752.54h-159.57c-9.99,0-18.12-8.58-18.12-19.12v-10.74c0-3.97,6-3.97,6,0v10.74c0,7.24,5.44,13.12,12.12,13.12h159.57c3.97,0,3.97,6,0,6Z"/>
  <path class="cls-2" d="M1021.8,2814.21h-158.22c-13.53,0-24.53-11.64-24.53-25.95v-15.55c0-14.31,11-25.96,24.53-25.96h9.41c3.97,0,3.97,6,0,6h-9.41c-10.22,0-18.53,8.95-18.53,19.96v15.55c0,11,8.31,19.95,18.53,19.95h158.22c3.97,0,3.97,6,0,6Z"/>
  <path class="cls-2" d="M1021.8,2869.64h-158.22c-13.53,0-24.53-10.62-24.53-23.68v-14.01c0-13.05,11-23.68,24.53-23.68h9.41c3.97,0,3.97,6,0,6h-9.41c-10.22,0-18.53,7.93-18.53,17.68v14.01c0,9.75,8.31,17.68,18.53,17.68h158.22c3.97,0,3.97,6,0,6Z"/>
  <path class="cls-2" d="M1018.48,2927.26h-155.35c-13.31,0-24.14-10.94-24.14-24.39v-14.48c0-13.45,10.83-24.39,24.14-24.39h9.23c3.97,0,3.97,6,0,6h-9.23c-10,0-18.14,8.25-18.14,18.39v14.48c0,10.14,8.14,18.39,18.14,18.39h155.35c3.97,0,3.97,6,0,6Z"/>
  <path class="cls-2" d="M842.04,2783.7h-67.04c-3.97,0-3.97-6,0-6h67.04c3.97,0,3.97,6,0,6Z"/>
  <path class="cls-2" d="M849.89,2810.56h-94.3c-3.97,0-3.97-6,0-6h94.3c3.97,0,3.97,6,0,6Z"/>
  <path class="cls-2" d="M849.89,2870h-157.86c-3.97,0-3.97-6,0-6h157.86c3.97,0,3.97,6,0,6Z"/>
  <path class="cls-2" d="M1037.22,2640.8h-178.97c-3.97,0-3.97-6,0-6h178.97c3.97,0,3.97,6,0,6Z"/>
  <path class="cls-2" d="M1037.22,2698.82h-178.97c-3.97,0-3.97-6,0-6h178.97c3.97,0,3.97,6,0,6Z"/>
</svg>