<?xml version="1.0" encoding="UTF-8"?>
<svg id="Retargeting_Strategy" data-name="Retargeting Strategy" xmlns="http://www.w3.org/2000/svg" viewBox="0 0 3000 3000">
  <defs>
    <style>
      .cls-1 {
        fill: #111;
      }

      .cls-2 {
        fill: #f2f1f2;
      }

      .cls-3 {
        fill: #dc4438;
      }

      .cls-4 {
        fill: #fff;
      }

      .cls-5 {
        fill: #d8d7d8;
      }

      .cls-6 {
        fill: #b3b2b3;
      }

      .cls-7 {
        fill: #efcebd;
      }
    </style>
  </defs>
  <g>
    <circle class="cls-2" cx="1875.83" cy="602.74" r="489.06"/>
    <path class="cls-5" d="M1875.83,992.76c-215.05,0-390.02-174.96-390.02-390.02s174.96-390.02,390.02-390.02,390.02,174.96,390.02,390.02-174.96,390.02-390.02,390.02Z"/>
    <path class="cls-2" d="M1875.83,885.1c-155.69,0-282.36-126.67-282.36-282.36s126.67-282.36,282.36-282.36,282.36,126.67,282.36,282.36-126.67,282.36-282.36,282.36Z"/>
    <path class="cls-5" d="M1875.83,777.44c-96.33,0-174.7-78.37-174.7-174.7s78.37-174.7,174.7-174.7,174.7,78.37,174.7,174.7-78.37,174.7-174.7,174.7Z"/>
    <path class="cls-2" d="M1875.83,687.01c-46.47,0-84.27-37.8-84.27-84.27s37.8-84.27,84.27-84.27,84.27,37.8,84.27,84.27-37.8,84.27-84.27,84.27Z"/>
  </g>
  <path class="cls-4" d="M2179.36,871.81h-327.83c-5.22,0-9.19-4.62-8.41-9.78,21.28-140.31,22.6-287.93,0-436.88-.78-5.16,3.19-9.77,8.41-9.77h327.84c4.17,0,7.74,2.98,8.41,7.1,23.07,142.18,24.39,291.91,0,442.24-.67,4.12-4.24,7.1-8.41,7.1Z"/>
  <g>
    <circle class="cls-5" cx="2025.22" cy="563.95" r="51.54"/>
    <path class="cls-5" d="M2025.22,609.34c-49.91,0-91.97,39.01-105.38,92.42-2.55,10.18,5.26,20.05,15.76,20.05h179.25c10.49,0,18.31-9.87,15.75-20.05-13.41-53.41-55.47-92.42-105.38-92.42Z"/>
  </g>
  <path class="cls-3" d="M1519.8,247.04c7.96-1.08,8.36-12.37.49-14-237.35-48.97-385.95,162.51-325.06,356.99,43.91-6.44,87.83-12.87,131.74-19.31-74.43-155.25,27.16-301.27,192.82-323.68Z"/>
  <path class="cls-3" d="M1164.04,585.95c58.84-15.19,117.69-30.39,176.54-45.58,6.27-1.62,11.71,4.61,9.25,10.6-19.06,46.58-38.12,93.16-57.18,139.74-1.98,4.84-8.05,6.44-12.16,3.2-39.78-31.39-79.57-62.77-119.36-94.16-5.11-4.03-3.4-12.17,2.91-13.8Z"/>
  <g>
    <path class="cls-3" d="M2229.71,976.24c-7.97,1-8.49,12.29-.64,13.99,236.84,51.39,387.59-158.56,328.69-353.65-43.98,5.99-87.95,11.98-131.93,17.96,72.84,156-30.24,300.98-196.12,321.7Z"/>
    <path class="cls-3" d="M2588.91,640.98c-59,14.59-117.99,29.18-176.99,43.77-6.29,1.56-11.66-4.73-9.14-10.7,19.53-46.38,39.07-92.77,58.6-139.15,2.03-4.82,8.12-6.36,12.19-3.07,39.46,31.79,78.93,63.58,118.39,95.37,5.07,4.08,3.27,12.21-3.05,13.77Z"/>
  </g>
  <path class="cls-7" d="M2585.9,1174.95c-177.44,81.01-354.89,162.03-532.33,243.04-216.54-7.12-433.08-14.24-649.62-21.36,6.02,90.51,12.03,181.03,18.05,271.55,261.96,12.47,536.36-6.71,645.86-26.49,98.34-17.76,333.66-80.37,600.43-368.33,0,0-54.92-65.61-82.4-98.41Z"/>
  <path class="cls-1" d="M1443.44,1262c-53.61-78.84-56.14-106.4-32.8-157.58,23.34-51.19-70.08-124.98-70.08-124.98l-118.76-65.17c-53.74-43.01-120.09-23.18-174.04,19.34-107.63,84.82-32.87,206.61-141.7,313.26-33.72,33.04-93.99,79.88-91.86,110.16,1.34,19.13,11.8,35.88,26.26,49.23,38.47,35.51-122.83.19-26.41,119.39,96.42,119.21,386.06,147.59,541.15,60.55,155.09-87.04,141.85-245.35,88.24-324.19Z"/>
  <path class="cls-7" d="M597.32,1057.01c-45.73,12.3-92.09,84.08-92.09,84.08l14.23,59.1s75.93-83.89,119.63-111.64c43.7-27.75,3.96-43.84-41.77-31.54Z"/>
  <path class="cls-7" d="M2545.95,1203.97s115.42-117.32,176.6-140.02c61.18-22.71,130.56-22.08,137.5-8.83,6.94,13.25-63.39,37.84-87.04,52.35-23.65,14.51-49.51,62.76-42.89,67.49,6.62,4.73,84.2-43.84,95.87-20.81,11.67,23.02-89.33,107.57-174.44,137.04-85.11,29.47-105.61-87.21-105.61-87.21Z"/>
  <rect class="cls-7" x="1122.12" y="1173.17" width="186.44" height="357.94" transform="translate(2560.11 2575.63) rotate(174.25)"/>
  <circle class="cls-7" cx="1201.27" cy="1081.49" r="153.9"/>
  <path class="cls-7" d="M1355.16,1078.16c2.17,17.85,4.86,42.71,7.01,72.51,6.13,85.12-2.24,105.23-8.24,116.75-38.68,74.38-117.42,72.32-188.23,26.68-56.2-36.22-86.24-99.64-109.84-162.2,99.77-17.92,199.54-35.83,299.31-53.75Z"/>
  <circle class="cls-1" cx="1204.46" cy="1153.15" r="10.92"/>
  <path class="cls-1" d="M1160.99,1129.8c1.84,3.23,12.93-5.2,36.57-6.22,11.54-.5,20.43,1.02,23.34-3.98,1.61-2.76.9-6.64-.7-9.17-5.25-8.29-23.3-6.96-35.33-2.31-14.49,5.6-25.87,18.2-23.88,21.69Z"/>
  <circle class="cls-1" cx="1320.58" cy="1132.91" r="10.92"/>
  <path class="cls-1" d="M1353.58,1096.23c-.64,3.66-13.93-.52-36.52,6.52-11.03,3.44-18.88,7.87-23.31,4.15-2.44-2.05-3.09-5.95-2.44-8.86,2.14-9.58,19.57-14.43,32.46-14.13,15.53.37,30.5,8.37,29.81,12.33Z"/>
  <path class="cls-1" d="M1264.25,1190.33c12.93-2.26,15.79-1.87,17.7-5.79.94-1.92.89-4.12-.13-6.03-13.9-25.95-15.12-53.55-15.17-54.71-.15-3.75,5.82-4.52,6-.23,0,.27,1.24,27.42,14.46,52.12,1.94,3.63,2.03,7.81.23,11.48-3.5,7.18-9.55,6.89-22.05,9.07-3.88.78-4.96-5.23-1.03-5.91Z"/>
  <path class="cls-1" d="M1255.56,1330.86c-20.73,0-48.32-5.24-77.1-25.66-3.24-2.3.22-7.17,3.47-4.9,62.58,44.41,120.01,14.77,120.58,14.46,3.5-1.86,6.32,3.42,2.82,5.3-10.63,5.61-30.11,10.8-49.77,10.8Z"/>
  <path class="cls-2" d="M1218.48,1213.43c-4.78,5.1,2.9,27.71,19.13,33.01,18.16,5.93,39.3-12.32,37.63-19.13-.79-3.24-6.4-2.54-27.54-7.78-21.73-5.38-26.68-8.81-29.22-6.1Z"/>
  <path class="cls-1" d="M1006.98,2225.11c-46.96,209.2-93.92,418.4-140.88,627.59-3.87,17.24,9.24,33.62,26.91,33.62h368.81c15.9,0,29.6-11.18,32.79-26.76,17.24-84.29,34.47-168.58,51.71-252.86l3.07,254.95c.16,13.67,11.29,24.67,24.97,24.67h364.41c14.09,0,25.69-10.98,26.4-25.05,4.68-92.36,6.58-425.99-176.56-762.24-193.88,42.02-387.75,84.05-581.63,126.07Z"/>
  <path class="cls-2" d="M1260.68,1400.48c-68.85,4.94-295.41,28.05-356.79,169.21-32.03,73.67-1.51,132.58,28.99,268.64,23.55,105.06,45.98,253.33,39.9,441.03-.55,17.08,10.56,32.38,26.97,37.14,219.83,63.81,454.66,25.53,642.1-102.73,7.98-5.46,11.24-15.55,8.03-24.67-25.18-71.47-54.54-179.03-57.49-310.67-4.88-217.73,66.62-313.54,3.06-400.52-36.74-50.27-120.72-99.44-334.77-77.43Z"/>
  <path class="cls-7" d="M493.57,1555.91c21.86-185.57,43.73-371.15,65.6-556.72h-121.1c-11.55,30.25-27.84,74.55-45.41,128.67-96.34,296.7-177.07,545.79-79.05,647.54,51.53,53.49,180.54,41.55,438.56,17.66,133.25-12.34,241.92-29.79,314.1-42.89,10.01-8.54,71.17-62.55,74.43-153.9,3.32-93.07-56.09-151.93-65.41-160.86-193.9,40.16-387.81,80.33-581.71,120.49Z"/>
  <path class="cls-2" d="M1340.57,1395.29l450.27-.21c9.21,0,16.75,7.31,17.03,16.51l7.62,249.74c.4,12.98-9.53,23.96-22.49,24.86l-265.68,18.56-186.76-309.47Z"/>
  <path class="cls-2" d="M1180.19,1409.85l-482.14,91.22c-9.41,1.78-16.01,10.32-15.36,19.88,5.98,88.16,11.96,176.33,17.94,264.49,1.33,19.65,18.94,34.13,38.48,31.63,119.44-15.29,238.88-30.58,358.33-45.86,0,0,195.84-266.06,82.76-361.35Z"/>
  <path class="cls-7" d="M1128.44,1419.64s45.89,53.86,111.48,49.66c65.6-4.2,73.43-74.22,73.43-74.22l-50.3-30.9-72.74,8.41-61.87,47.06Z"/>
  <path class="cls-1" d="M1049.78,1132.91c19.66,12.92,41.69,13.85,65.26-1.27,24.1-15.45,64.56-74.37,105.12-160.2.48,62.26,60.32,105.12,107.01,55.08,0,0,18.54,19.18,27.98,51.64,35.94-60.43,14.95-136.31-34.58-163.91-46.66-25.99-94.82-2.04-98.77,0-52.37-19.77-110.31-11.7-149.65,22.28-52.12,45.02-64.19,129.09-22.37,196.37Z"/>
  <path class="cls-7" d="M1103.9,1140.73c-20.84-20.87-52.24-20.03-65.31,5.59-10.73,21.03,2.39,44.42,3.7,46.67,14.41,24.8,54.67,35.35,99.3,23.97-12.56-25.41-25.12-50.82-37.68-76.23Z"/>
  <path class="cls-1" d="M1085.62,1162.45c-3.11-1.93-6.51-3.35-10.06-4.18-13.42-3.17-18.61,3.48-20.08-1.79-.44-1.6.5-3.25,2.1-3.69,12.65-3.46,26.22-.42,36.26,8.28,1.88,1.64,1.06,4.73-1.38,5.21-5.79,1.16-10.33,5.96-10.32,10.93,0,5.82,6.45,12.03,14.85,10.85,3.96-.58,4.79,5.36.89,5.93-19.51,2.98-30.89-21.4-12.25-31.54Z"/>
  <g>
    <path class="cls-6" d="M139.76,664.57c12.65,69.17,335.25-13.57,398.07,104.89,63.28,119.31-169.49,381.4-112.1,436.09,66.12,63.01,399.3-329.35,294.46-540.93-93.2-188.08-484.45-138.08-568.5-30.76-13.81,17.64-12.43,28.02-11.94,30.71Z"/>
    <path class="cls-2" d="M356.69,544.91l-82.12,152.51c15.47.35,31.51.67,47.76,1.19l81.87-158.83c-16.04,1.09-31.91,2.82-47.51,5.12Z"/>
    <path class="cls-2" d="M445.75,538.45l-87.12,161.79c15.5.93,30.89,2.2,45.8,4.08l84.55-164.04c-14.31-1.18-28.75-1.79-43.24-1.83Z"/>
  </g>
  <path class="cls-7" d="M408.42,1087.49s16.4-196.37,62.44-224.12c46.04-27.75,176.92,97.13,167.77,127.41-9.15,30.27-83.89-25.23-83.89-25.23,0,0,63.07,29.96,54.87,58.66-8.2,28.7-75.06-16.4-75.06-16.4,0,0,52.35,29.96,45.41,52.98-6.94,23.02-67.49-11.98-67.49-11.98,0,0,53.93,27.12,44.15,50.46-9.78,23.34-76.32-12.61-76.32-12.61,0,0-33.11,68.75-64.33,51.72-31.22-17.03-7.57-50.88-7.57-50.88Z"/>
  <path class="cls-1" d="M596.44,994.06c-1.56,0-.37.47-93-68.99-3.19-2.4.44-7.17,3.6-4.8l91.2,68.4c2.3,1.73,1.07,5.4-1.8,5.4Z"/>
  <path class="cls-1" d="M560.11,1025.57c-1.26,0-.36.26-82.34-47.33-3.44-1.99-.43-7.18,3.01-5.19l80.84,46.93c2.64,1.53,1.55,5.6-1.51,5.6Z"/>
  <path class="cls-1" d="M529.63,1062.04c-1.21,0-.21.31-67.79-36.83-3.47-1.93-.59-7.16,2.89-5.26l66.34,36.46c2.71,1.5,1.65,5.63-1.45,5.63Z"/>
  <path class="cls-1" d="M919.34,1794.16l-25.05-135.53c-.73-3.9,5.18-4.99,5.89-1.09l25.05,135.53c.73,3.9-5.18,4.99-5.89,1.09Z"/>
  <path class="cls-1" d="M470.44,1657.51l20.18-102.18c.76-3.93,6.65-2.72,5.88,1.16l-20.18,102.18c-.77,3.9-6.66,2.73-5.88-1.16Z"/>
  <path class="cls-1" d="M1597.13,1699.46l8.57-117.28c.28-3.99,6.27-3.51,5.99.43l-8.57,117.28c-.29,3.96-6.27,3.53-5.99-.43Z"/>
  <path class="cls-2" d="M1343.44,2605.83l40.37-134.13c1.14-3.8,6.89-2.06,5.74,1.73l-40.37,134.13c-1.14,3.8-6.89,2.06-5.74-1.73Z"/>
</svg>